<svg width="51" height="30" viewBox="0 0 51 30" fill="none" xmlns="http://www.w3.org/2000/svg">
<g clip-path="url(#clip0_9598_5166)">
<path d="M32.3115 3.60938H19.4102V26.4066H32.3115V3.60938Z" fill="#FF5F00"/>
<path d="M20.2292 15.0034C20.2292 10.5728 22.318 6.34363 25.8403 3.60474C19.4511 -1.34942 10.1539 -0.261925 5.11624 6.06169C0.11953 12.345 1.22536 21.4478 7.65555 26.402C13.0209 30.5506 20.5159 30.5506 25.8813 26.402C22.318 23.6631 20.2292 19.4339 20.2292 15.0034Z" fill="#EB001B"/>
<path d="M49.7176 15.0034C49.7176 23.0186 43.1236 29.5034 34.9732 29.5034C31.6557 29.5034 28.4611 28.4159 25.8809 26.402C32.2701 21.4478 33.3759 12.345 28.3383 6.02141C27.601 5.1353 26.7819 4.28946 25.8809 3.60474C32.2701 -1.34942 41.5673 -0.261925 46.564 6.06169C48.6118 8.59918 49.7176 11.7409 49.7176 15.0034Z" fill="#F79E1B"/>
</g>
<defs>
<clipPath id="clip0_9598_5166">
<rect width="51" height="30" fill="white"/>
</clipPath>
</defs>
</svg>
