<svg width="77" height="25" viewBox="0 0 77 25" fill="none" xmlns="http://www.w3.org/2000/svg">
<g clip-path="url(#clip0_9598_5160)">
<mask id="mask0_9598_5160" style="mask-type:luminance" maskUnits="userSpaceOnUse" x="0" y="0" width="77" height="25">
<path d="M76.9882 0H0V25H76.9882V0Z" fill="white"/>
</mask>
<g mask="url(#mask0_9598_5160)">
<path d="M29.2311 0.441483L19.1516 24.6218H12.5755L7.61542 5.32642C7.31428 4.13784 7.05404 3.7024 6.137 3.20206C4.64175 2.38602 2.17252 1.62119 0 1.14584L0.149565 0.441483H10.7355C12.0843 0.441483 13.2973 1.34461 13.6037 2.90733L16.2233 16.8977L22.6975 0.439869L29.2311 0.441483ZM54.9972 16.7271C55.0238 10.3452 46.2206 9.99402 46.2812 7.14274C46.3 6.2751 47.1232 5.35303 48.92 5.11717C49.8114 4.99984 52.2673 4.90993 55.055 6.1993L56.1477 1.07165C54.6508 0.525746 52.7249 0 50.3286 0C44.1796 0 39.8522 3.28672 39.8157 7.99305C39.7756 11.4741 42.9032 13.4166 45.2615 14.5729C47.6862 15.7579 48.4994 16.5188 48.4905 17.5787C48.4729 19.2006 46.5566 19.9171 44.7654 19.9449C41.6378 19.9933 39.8241 19.0942 38.3774 18.4177L37.2499 23.7151C38.7034 24.386 41.3863 24.971 44.1684 25C50.7043 25 54.9792 21.754 54.9992 16.7271H54.9972ZM71.2365 24.6218H76.9902L71.9651 0.441483H66.6554C66.0882 0.436568 65.5328 0.603057 65.0608 0.919366C64.5889 1.23568 64.2225 1.68723 64.0089 2.21547L54.6733 24.6218H61.2056L62.502 21.0102H70.4835L71.2365 24.6218ZM64.2952 16.0542L67.5695 6.97502L69.4542 16.0542H64.2952ZM38.1196 0.441483L32.9754 24.6218H26.7546L31.9007 0.441483H38.1196Z" fill="white"/>
</g>
</g>
<defs>
<clipPath id="clip0_9598_5160">
<rect width="77" height="25" fill="white"/>
</clipPath>
</defs>
</svg>
